<svg width="382" height="102" viewBox="0 0 382 102" fill="none" xmlns="http://www.w3.org/2000/svg">
    <g clip-path="url(#clip0_74:136)">
        <path fill-rule="evenodd" clip-rule="evenodd" d="M0.710007 47.51C0.710007 47.39 0.770007 47.27 0.830007 47.15C3.10001 44.17 9.31001 34.97 15.93 25.36C16.35 24.64 16.65 23.93 16.89 23.27C13.85 23.27 10.56 23.75 8.65001 23.93H8.53001C8.23001 23.93 8.11001 23.75 8.11001 23.57C8.11001 23.33 8.23001 23.15 8.53001 23.09C10.56 22.73 13.66 22.43 17.25 22.19C17.43 21.41 17.55 20.7 17.55 19.98C17.55 12.46 7.34001 8.7 6.81001 5.65V5.41C6.81001 1.17 27.94 0.279999 43.94 0.279999C52.3 0.279999 59.28 0.519999 61.07 0.699999C61.43 0.699999 61.55 0.999999 61.55 1.24C61.55 1.48 61.37 1.78 61.07 1.78H61C59.45 1.6 53.3 1.48 45.72 1.48C29.96 1.48 7.88001 2.2 7.88001 5.42V5.6C8.60001 8.35 18.62 11.99 18.62 19.87C18.62 20.47 18.56 21.06 18.44 21.72L31.15 3.45C31.27 3.33 31.39 3.21 31.57 3.21C31.87 3.21 32.11 3.51 32.11 3.81C32.11 3.93 32.11 3.99 32.05 4.11C28.71 8.77 24.11 15.39 19.51 22.08C27.63 21.66 38.13 21.48 40.04 21.48C40.4 21.48 40.52 21.72 40.52 22.02C40.52 22.26 40.4 22.56 40.04 22.56C38.13 22.56 26.55 22.74 18.73 23.22L1.54001 47.69C1.42001 47.87 1.30001 47.93 1.12001 47.93C0.940007 47.93 0.710007 47.75 0.710007 47.51ZM46.56 36.47C46.56 35.1 47.52 33.31 48.77 31.4C46.38 33.37 40.53 38.09 37.55 38.09C36.42 38.09 35.7 37.31 35.7 36.3C35.7 33.32 40.95 28.18 45.01 28.18C46.08 28.18 47.16 28.6 47.93 29.49L48.05 29.85C48.05 30.15 47.81 30.39 47.51 30.39C47.39 30.39 47.21 30.33 47.09 30.15C46.49 29.49 45.72 29.19 44.88 29.19C41.48 29.19 36.7 34.08 36.7 36.23C36.7 36.71 37.12 37.13 37.6 37.13C40.35 37.13 48.52 30.33 51.03 28.18C51.15 28.12 51.27 28.06 51.39 28.06C51.63 28.06 51.93 28.36 51.93 28.6L51.81 28.9C49.72 31.88 47.57 34.75 47.57 36.36C47.57 37.02 47.93 37.37 48.47 37.37C51.22 37.37 60.17 31.46 62.92 29.55C62.93 29.55 62.93 29.54 62.94 29.54C63.79 28.04 64.93 26.94 66.68 26.81H66.74C67.1 26.81 67.28 27.05 67.28 27.35C67.28 27.59 67.1 27.89 66.74 27.89C63.22 28.19 62.56 34.34 60.77 37.86C66.31 36.96 73.71 32.5 78.25 29.57C78.25 29.56 78.26 29.56 78.26 29.55C79.22 27.94 85.6 19.82 87.57 17.49C92.88 11.1 100.22 3.34 103.69 3.34C104.23 3.34 104.65 3.46 104.94 3.82C105.18 4.06 105.3 4.36 105.3 4.78C105.3 10.21 82.14 28.18 79.1 30.21C77.67 32.18 76.47 34.03 75.58 35.46C77.91 33.13 82.92 28.42 85.85 28.42C87.4 28.42 87.82 29.55 87.82 31.34C87.82 32.65 87.58 34.21 87.58 35.34C87.58 36.35 87.76 37.13 88.42 37.25C88.72 37.31 88.6 37.31 88.96 37.31C91.33 37.31 100.12 31.12 102.2 29.71C102.64 29.21 103.03 28.78 103.33 28.47C103.45 28.35 103.57 28.29 103.69 28.29C103.99 28.29 104.29 28.59 104.29 28.89C104.29 29.01 104.23 29.13 104.11 29.25C102.86 30.44 99.22 34.74 99.22 36.77C99.22 37.07 99.34 37.37 99.52 37.55C99.76 37.73 100.12 37.85 100.53 37.85C104.42 37.85 116.15 31.62 119.34 29.82C119.8 29.45 120.3 29.1 120.83 28.78L121.07 28.72C121.37 28.72 121.61 29.02 121.61 29.26C121.61 29.44 121.55 29.56 121.37 29.68C119.94 30.58 118.5 31.83 117.49 33.26C117.01 33.86 116 35.65 116 36.84C116 37.5 116.24 37.91 117.07 37.97H117.19C119.22 37.97 122.74 34.51 123.58 33.13C122.62 32.23 122.27 31.16 122.27 30.26C122.27 29.07 122.99 28.17 123.88 28.17C124.12 28.17 124.3 28.17 124.54 28.29C125.38 28.65 125.73 29.42 125.73 30.26C125.73 31.1 125.43 32.05 124.95 32.89C125.49 33.13 126.14 33.25 126.92 33.25C130.31 33.25 135.54 30.88 137.63 29.57C137.97 29.15 138.27 28.81 138.49 28.59C138.55 28.47 138.67 28.41 138.79 28.41C139.09 28.41 139.39 28.71 139.39 29.01C139.39 29.13 139.33 29.25 139.21 29.37C138.43 30.15 136.29 33.07 135.21 34.56C138.13 31.93 142.25 28.77 144.58 28.77H144.82C146.49 28.95 146.61 30.92 146.61 32.83V33.9C146.61 35.15 146.67 36.23 147.27 36.53C147.39 36.65 147.63 36.65 147.93 36.65C150.97 36.65 160.41 30.62 162.02 29.55C162.2 29.43 162.26 29.43 162.32 29.43C162.5 29.43 162.56 29.49 162.68 29.61C162.68 29.61 162.86 29.91 162.5 30.15C160.35 31.58 151.46 37.67 147.76 37.67C147.34 37.67 146.98 37.61 146.75 37.43C144.6 36.12 146.57 30.03 144.72 29.85H144.48C141.38 29.85 134.15 37.01 132.3 38.74C132.18 38.86 132.06 38.86 131.94 38.86C131.63 38.86 131.33 38.62 131.33 38.32L131.45 38.02C132.07 37.11 134.5 33.65 136.42 31.12C133.88 32.5 129.81 34.33 126.74 34.33C125.84 34.33 125.01 34.15 124.35 33.79C122.8 35.94 119.63 38.92 117.13 38.92C116.83 38.92 116.53 38.92 116.23 38.8C115.27 38.5 114.98 37.73 114.98 36.89C114.98 35.76 115.52 34.38 115.94 33.67C116.28 33.11 116.69 32.52 117.17 31.94C112.65 34.48 104.32 38.81 100.47 38.81C99.69 38.8 99.09 38.62 98.74 38.26C98.38 37.9 98.2 37.36 98.2 36.83C98.2 35.29 99.41 33.28 100.71 31.55C97.01 34.12 91.35 38.33 88.6 38.33C86.99 38.09 86.57 37.14 86.57 35.11C86.57 33.74 86.75 32.24 86.75 31.11C86.75 30.15 86.63 29.5 85.97 29.44C82.87 29.44 76.42 36.01 73.97 38.69C73.91 38.75 73.73 38.87 73.49 38.87C73.25 38.87 73.07 38.74 73.07 38.38C73.07 37.06 75.23 33.85 77.1 31.2C72.29 34.33 65.42 38.46 60.12 38.99C59.34 40.06 58.33 40.48 57.37 40.48C55.81 40.47 54.44 39.34 54.32 37.79V37.67C54.32 36.95 54.62 36.66 54.92 36.66C55.04 36.66 55.16 36.72 55.28 36.84C56.24 37.62 57.49 37.97 58.92 37.97H59.52C60.63 36.18 61.25 33.36 62.23 31C58.63 33.47 51.34 38.21 48.18 38.21C47.09 38.2 46.56 37.49 46.56 36.47ZM58.62 39.04C57.49 38.98 56.41 38.74 55.52 38.26C55.82 38.98 56.65 39.45 57.43 39.45C57.84 39.46 58.26 39.34 58.62 39.04ZM103.03 7.28C103.63 6.38 104.16 5.43 104.16 4.83C104.16 4.47 103.98 4.41 103.56 4.41C99.02 4.41 85.53 21.36 81 27.51C85.96 23.88 99.03 13.25 103.03 7.28ZM106.73 25.85V25.61C107.15 24.24 108.58 22.51 110.01 22.51H110.13C110.43 22.51 110.61 22.81 110.61 23.05C110.61 23.29 110.43 23.59 110.07 23.59H109.89C109.05 23.59 107.74 24.96 107.38 25.8C107.26 26.1 107.08 26.22 106.96 26.22C106.79 26.2 106.73 26.09 106.73 25.85ZM124.64 30.38C124.64 29.72 124.34 29.31 124.04 29.25H123.92C123.44 29.25 123.26 29.67 123.26 30.21C123.26 30.87 123.62 31.76 124.1 32.18C124.53 31.46 124.64 30.86 124.64 30.38ZM174.43 38.14C173.65 37.6 173.36 36.83 173.36 35.99C173.36 35.69 173.42 35.39 173.48 35.03C174.08 31.87 176.76 29.12 179.63 27.81C180.47 27.45 181.42 27.15 182.14 27.15C182.8 27.15 183.33 27.33 183.57 27.93C183.63 28.11 183.69 28.29 183.69 28.53C183.69 29.96 181.3 31.28 179.27 31.28C178.49 31.28 177.78 31.1 177.24 30.62C175.99 31.87 174.43 34.2 174.43 35.87C174.43 36.41 174.61 36.94 175.09 37.3C175.51 37.66 176.1 37.78 176.82 37.78H177.06C181.66 37.78 192.37 30.89 194.53 29.62C194.58 29.56 194.64 29.5 194.74 29.43L196.59 28L196.89 27.88C197.13 27.88 197.37 28 197.43 28.3L198.74 32.6C203.99 29.68 209.37 26.75 211.81 26.75C212.23 26.75 212.41 26.93 212.41 27.23C212.41 27.47 212.23 27.71 211.87 27.71C209.54 27.71 204.65 30.46 199.16 33.62C199.94 35.41 200.95 36.84 202.68 37.2L203.69 37.32C208.56 37.32 218.15 31.77 221.31 29.59C221.71 29.07 222.09 28.62 222.43 28.23C222.49 28.11 222.61 28.05 222.73 28.05C223.03 28.05 223.33 28.41 223.33 28.71C223.33 28.83 223.33 28.89 223.27 29.01C221.78 30.68 219.69 33.67 217.3 37.31C220.64 33.19 225.66 27.58 229.24 27.58C229.78 27.58 230.25 27.7 230.73 27.94C231.39 28.3 231.69 28.95 231.69 29.67C231.69 31.88 229 35.28 227.93 36.24C232.72 34.72 237.63 32.71 241.93 30.02C242.9 29.1 244.03 28.34 245.18 27.81C246.02 27.45 246.97 27.15 247.69 27.15C248.35 27.15 248.88 27.33 249.12 27.93C249.18 28.11 249.24 28.29 249.24 28.53C249.24 29.96 246.85 31.28 244.82 31.28C244.04 31.28 243.33 31.1 242.79 30.62C241.54 31.87 239.98 34.2 239.98 35.87C239.98 36.41 240.16 36.94 240.64 37.3C241.06 37.66 241.65 37.78 242.37 37.78H242.61C247.3 37.78 258.31 30.64 260.19 29.56C260.23 29.51 260.28 29.47 260.34 29.43C261.59 28.59 262.49 27.82 263.32 27.16V26.98C263.32 25.85 265.23 24.53 266.01 24.53C266.43 24.53 266.61 24.77 266.61 25.01C266.61 25.31 266.37 25.73 266.13 26.02C265.83 26.38 265.35 26.86 264.64 27.45L265.89 28.88C266.07 29.12 266.13 29.48 266.13 29.84C266.13 31.93 263.21 35.45 263.21 37.18C263.21 37.54 263.33 37.78 263.63 37.96C263.81 38.08 264.05 38.14 264.29 38.14C267.75 38.14 279.03 30.86 281.12 29.54C281.13 29.54 281.13 29.53 281.14 29.53L281.23 29.37C284.39 23.4 289.47 17.79 294.06 12.72C286.6 13.2 279.32 13.62 273.59 14.57H273.41C273.17 14.57 272.99 14.39 272.99 14.21C272.99 14.03 273.17 13.79 273.47 13.79C279.56 12.78 287.2 12.06 295.14 11.58C295.38 11.46 301.35 4.78 303.97 4.78C304.33 4.78 304.63 4.9 304.87 5.2C304.99 5.38 305.05 5.56 305.05 5.8C305.05 6.93 303.44 8.9 301.29 11.29C309.23 10.93 317.05 10.75 323.5 10.75C327.02 10.75 330.07 10.81 332.57 10.87C332.93 10.87 333.11 11.05 333.11 11.29C333.11 11.47 332.93 11.71 332.57 11.71C330.84 11.65 328.87 11.65 326.66 11.65C319.44 11.65 309.83 11.89 300.28 12.37C295.56 17.44 288.58 23.95 284.7 27.53L281.83 30.22C280.82 32.07 280.22 33.74 280.22 35.11C280.22 35.89 280.46 36.54 280.94 37.02C281.54 37.62 282.55 37.92 283.69 37.92C289.51 37.92 300.48 31.6 303.73 29.59C303.23 30.15 302.67 30.83 302.13 31.55C297.63 34.26 289.01 38.93 283.64 38.93C282.19 38.92 281 38.56 280.22 37.79C279.56 37.13 279.26 36.3 279.26 35.28C279.26 34.02 279.7 32.52 280.44 30.91C276.67 33.39 267.82 39.09 264.11 39.09C263.68 39.1 263.33 39.04 263.03 38.86C262.43 38.5 262.19 37.9 262.19 37.25C262.19 34.98 265.11 31.46 265.11 29.97C265.11 29.79 265.05 29.61 264.99 29.49L263.8 28.12C263.02 28.72 261.89 29.25 260.7 30.09C260.66 30.11 260.63 30.12 260.59 30.13C260.59 30.14 260.58 30.14 260.58 30.14C257.6 32.05 247.51 38.8 242.19 38.8C241.3 38.8 240.58 38.56 239.98 38.14C239.2 37.6 238.91 36.83 238.91 35.99C238.91 35.69 238.97 35.39 239.03 35.03C239.25 33.89 239.73 32.8 240.4 31.82C235.12 34.91 229.6 37.08 223.69 38.51H223.57C223.21 38.51 222.97 38.21 222.97 37.91C222.97 37.73 223.03 37.55 223.33 37.49C228.28 36.12 230.55 31.52 230.55 29.61C230.55 29.19 230.43 28.95 230.25 28.83C229.89 28.65 229.59 28.59 229.24 28.59C222.97 28.59 208.23 51.69 205.6 55.99L201.78 62.26C201.66 62.38 201.54 62.44 201.36 62.44C201.06 62.44 200.7 62.26 200.7 61.96L200.82 61.66C201.42 60.53 205.71 53.6 206.07 53.06C211.02 45 216.23 36.61 219.88 31.52C215.56 34.28 207.95 38.4 203.57 38.4C203.15 38.4 202.79 38.34 202.44 38.28C200.35 37.8 199.1 36.19 198.2 34.16C195.22 35.89 190.68 38.46 188.53 39.47L188.23 39.53C187.99 39.52 187.87 39.4 187.87 39.22C187.87 39.1 187.99 38.92 188.23 38.8C190.38 37.79 194.8 34.86 197.84 33.13L196.65 29.13L195.22 30.03C195.19 30.05 195.16 30.07 195.13 30.08C195.1 30.1 195.07 30.12 195.03 30.14C192.05 32.05 181.96 38.8 176.64 38.8C175.75 38.8 175.03 38.56 174.43 38.14ZM303.73 29.59C304.12 29.14 304.48 28.76 304.75 28.47C304.87 28.35 304.99 28.29 305.11 28.29C305.41 28.29 305.71 28.59 305.71 28.89C305.71 29.01 305.65 29.13 305.53 29.25C304.28 30.44 300.64 34.74 300.64 36.77C300.64 37.07 300.76 37.37 300.94 37.55C301.18 37.73 301.54 37.85 301.95 37.85C306.07 37.85 318.96 30.87 321.23 29.55C321.24 29.55 321.25 29.54 321.26 29.54C322.11 28.04 323.25 26.94 325 26.81H325.06C325.42 26.81 325.6 27.05 325.6 27.35C325.6 27.59 325.42 27.89 325.06 27.89C321.54 28.19 320.88 34.34 319.09 37.86C324.56 36.97 331.83 32.62 336.39 29.69C337.25 28.92 338.22 28.28 339.21 27.82C340.05 27.46 340.94 27.16 341.72 27.16C342.38 27.16 342.91 27.4 343.15 28C343.27 28.18 343.27 28.36 343.27 28.6C343.27 30.03 340.94 31.29 338.91 31.29C338.13 31.29 337.42 31.11 336.88 30.63C335.63 31.82 334.19 34.03 334.19 35.94C334.19 36.95 334.61 37.91 335.62 38.57C336.46 39.11 337.71 39.29 339.26 39.29C348.45 39.29 368.87 32.01 381.7 30.81H381.82C381.94 30.81 382 30.87 382 30.99C382 31.11 381.94 31.17 381.76 31.23C370.72 32.3 349.71 40.3 339.26 40.3C335.44 40.29 333 39.22 333 36.29C333 35.93 333.06 35.51 333.12 35.04C333.34 33.88 333.84 32.77 334.53 31.77C329.79 34.81 323.42 38.49 318.44 38.99C317.66 40.06 316.65 40.48 315.69 40.48C314.13 40.47 312.76 39.34 312.64 37.79V37.67C312.64 36.95 312.94 36.66 313.24 36.66C313.36 36.66 313.48 36.72 313.6 36.84C314.56 37.62 315.81 37.97 317.24 37.97H317.84C318.99 36.12 319.61 33.16 320.66 30.75C317.29 32.74 306.45 38.81 301.89 38.81C301.12 38.8 300.52 38.62 300.16 38.26C299.8 37.9 299.62 37.36 299.62 36.83C299.62 35.29 300.82 33.28 302.13 31.55C303.08 30.98 303.84 30.49 304.35 30.16C304.47 30.04 304.53 29.92 304.53 29.8L304.47 29.56C304.35 29.5 304.23 29.44 304.11 29.44L303.87 29.5C303.82 29.53 303.78 29.56 303.73 29.59ZM182.67 28.59C182.55 28.23 182.43 28.11 181.95 28.11C180.82 28.11 178.49 29.54 178.07 29.9C178.37 30.14 178.79 30.26 179.26 30.26C180.7 30.26 182.67 29.25 182.67 28.59ZM248.22 28.59C248.1 28.23 247.98 28.11 247.5 28.11C246.37 28.11 244.04 29.54 243.62 29.9C243.92 30.14 244.34 30.26 244.81 30.26C246.25 30.26 248.22 29.25 248.22 28.59ZM298.84 12.48L295.56 12.66C291.38 17.2 287.26 21.73 283.8 26.93C287.56 23.4 294.19 17.25 298.84 12.48ZM299.98 11.34C300.04 11.28 304.1 7.04 304.1 5.97L304.04 5.79C303.98 5.73 303.92 5.73 303.8 5.73C302.43 5.73 297.05 11.1 296.7 11.52L299.98 11.34ZM308.16 25.85V25.61C308.58 24.24 310.01 22.51 311.44 22.51H311.56C311.86 22.51 312.04 22.81 312.04 23.05C312.04 23.29 311.86 23.59 311.5 23.59H311.32C310.48 23.59 309.17 24.96 308.81 25.8C308.69 26.1 308.51 26.22 308.39 26.22C308.22 26.2 308.16 26.09 308.16 25.85ZM316.94 39.04C315.81 38.98 314.73 38.74 313.84 38.26C314.14 38.98 314.97 39.45 315.75 39.45C316.16 39.46 316.58 39.34 316.94 39.04ZM342.25 28.59L342.19 28.41C342.13 28.23 341.89 28.11 341.59 28.11C340.46 28.11 338.07 29.54 337.65 29.9C337.95 30.14 338.43 30.26 338.9 30.26C340.34 30.26 342.25 29.25 342.25 28.59Z" fill="white" />
        <path fill-rule="evenodd" clip-rule="evenodd" d="M171.61 94.68V94.9H164.79V94.68L167.07 94.4L164.45 87.27H157.71L155.4 93.43C155.32 93.64 155.29 93.8 155.29 93.93C155.29 94.13 155.35 94.28 155.47 94.36C155.59 94.44 155.81 94.5 156.12 94.54L157.82 94.68V94.9H151.89V94.68L153.45 94.54C153.91 94.5 154.24 94.41 154.44 94.26C154.63 94.11 154.81 93.83 154.95 93.42L161.77 75.23H162.27L169.29 94.39L171.61 94.68ZM164.28 86.83L161.16 78.33H161.05L157.87 86.83H164.28Z" fill="white" />
        <path fill-rule="evenodd" clip-rule="evenodd" d="M179.68 83.76C180.16 84.13 180.53 84.58 180.79 85.11C181.05 85.64 181.18 86.23 181.18 86.88C181.18 87.88 180.88 88.74 180.27 89.46C179.67 90.17 178.86 90.63 177.86 90.84C177.64 90.9 177.41 90.92 177.19 90.92C176.22 91.09 175.48 91.32 174.95 91.62C174.42 91.92 174.16 92.25 174.16 92.62C174.16 92.88 174.24 93.1 174.41 93.27C174.58 93.45 174.89 93.61 175.36 93.77C175.82 93.93 176.52 94.09 177.45 94.26C179.03 94.56 180.15 94.97 180.82 95.51C181.49 96.05 181.82 96.81 181.82 97.79C181.82 98.53 181.58 99.21 181.1 99.81C180.62 100.41 179.95 100.89 179.09 101.23C178.24 101.57 177.28 101.74 176.22 101.74C174.68 101.74 173.49 101.47 172.64 100.92C171.79 100.37 171.37 99.61 171.37 98.62C171.37 97.93 171.64 97.3 172.19 96.71C172.74 96.12 173.48 95.68 174.4 95.39C173.75 95.13 173.28 94.84 172.99 94.51C172.7 94.18 172.56 93.8 172.56 93.35C172.56 92.83 172.87 92.36 173.49 91.93C174.11 91.5 175.01 91.16 176.18 90.9C175.03 90.79 174.1 90.36 173.38 89.62C172.66 88.88 172.31 87.95 172.31 86.83C172.31 85.64 172.72 84.67 173.55 83.92C174.38 83.17 175.44 82.79 176.74 82.79C177.78 82.79 178.68 83.04 179.44 83.54C179.9 81.94 180.62 81.15 181.58 81.15C181.93 81.15 182.21 81.25 182.42 81.44C182.63 81.63 182.73 81.89 182.73 82.21C182.73 82.47 182.64 82.69 182.45 82.88C182.26 83.07 182.04 83.16 181.78 83.16C181.56 83.16 181.32 83.06 181.08 82.85C181.04 82.83 180.96 82.79 180.84 82.71C180.72 82.64 180.59 82.6 180.46 82.6C180.12 82.62 179.85 83 179.68 83.76ZM179.46 97.01C178.96 96.63 178.01 96.3 176.62 96.02C175.84 95.89 175.2 95.72 174.7 95.52C173.38 95.98 172.72 96.94 172.72 98.39C172.72 99.37 173.04 100.14 173.68 100.67C174.32 101.21 175.23 101.48 176.4 101.48C177.57 101.48 178.5 101.23 179.19 100.71C179.88 100.2 180.22 99.51 180.22 98.63C180.21 97.93 179.96 97.39 179.46 97.01ZM178.47 89.61C178.91 88.9 179.12 87.99 179.12 86.88C179.12 85.77 178.9 84.86 178.47 84.15C178.03 83.44 177.46 83.09 176.76 83.09C176.05 83.09 175.48 83.44 175.05 84.15C174.61 84.86 174.4 85.77 174.4 86.88C174.4 87.99 174.62 88.9 175.05 89.61C175.48 90.32 176.06 90.67 176.76 90.67C177.47 90.67 178.04 90.32 178.47 89.61Z" fill="white" />
        <path fill-rule="evenodd" clip-rule="evenodd" d="M192.86 91.73L192.97 91.79L192.86 92.1C192.49 93.08 191.94 93.85 191.2 94.38C190.47 94.92 189.59 95.19 188.57 95.19C187.57 95.19 186.68 94.93 185.9 94.41C185.12 93.89 184.51 93.17 184.08 92.24C183.65 91.31 183.43 90.24 183.43 89.04C183.43 87.84 183.66 86.76 184.13 85.81C184.59 84.86 185.25 84.13 186.11 83.61C186.96 83.09 187.94 82.83 189.03 82.83C190.33 82.83 191.33 83.22 192.02 83.99C192.71 84.76 193.07 85.88 193.09 87.35L192.92 87.49H185.4C185.36 87.97 185.34 88.35 185.34 88.63C185.34 90.32 185.68 91.61 186.37 92.49C187.06 93.37 188.01 93.81 189.24 93.81C189.87 93.81 190.48 93.67 191.06 93.38C191.64 93.09 192.16 92.66 192.61 92.09L192.86 91.73ZM186.54 84.21C185.96 84.93 185.59 85.92 185.43 87.16L190.83 86.96C190.89 86.74 190.91 86.37 190.91 85.85C190.91 84.85 190.72 84.14 190.34 83.73C189.96 83.32 189.42 83.12 188.71 83.12C187.84 83.12 187.11 83.49 186.54 84.21Z" fill="white" />
        <path d="M206.51 94.68V94.9H201.33V94.68L203.03 94.46V87.36C203.03 86.64 203.01 86.1 202.97 85.74C202.93 85.39 202.86 85.09 202.75 84.85C202.6 84.53 202.36 84.29 202.01 84.11C201.67 83.93 201.27 83.85 200.83 83.85C199.88 83.85 199.04 84.25 198.3 85.05V94.47L200 94.69V94.91H194.79V94.69L196.49 94.47V84.86L194.85 84.25V84.05L198 82.96H198.22V84.71C199.41 83.45 200.65 82.82 201.95 82.82C202.53 82.82 203.05 82.95 203.52 83.2C203.99 83.45 204.33 83.78 204.54 84.19C204.67 84.43 204.75 84.76 204.79 85.18C204.83 85.6 204.85 86.33 204.85 87.37V94.47L206.51 94.68Z" fill="white" />
        <path d="M213.58 82.82C214.62 82.82 215.5 83.05 216.21 83.52C216.92 83.98 217.28 84.56 217.28 85.25C217.28 85.57 217.19 85.82 217 86.02C216.81 86.22 216.56 86.31 216.25 86.31C215.88 86.31 215.62 86.19 215.48 85.96C215.34 85.73 215.22 85.36 215.1 84.86C214.97 84.28 214.8 83.85 214.6 83.55C214.39 83.25 214.02 83.1 213.46 83.1C212.79 83.1 212.19 83.34 211.65 83.82C211.11 84.3 210.69 84.97 210.38 85.83C210.07 86.68 209.92 87.65 209.92 88.73C209.92 90.35 210.26 91.6 210.95 92.49C211.64 93.38 212.61 93.83 213.87 93.83C214.56 93.83 215.17 93.69 215.72 93.4C216.27 93.11 216.77 92.67 217.24 92.08L217.49 91.75L217.6 91.81L217.49 92.12C217.12 93.1 216.56 93.87 215.8 94.4C215.04 94.93 214.16 95.21 213.14 95.21C212.16 95.21 211.28 94.96 210.51 94.44C209.74 93.92 209.14 93.21 208.7 92.3C208.26 91.38 208.05 90.34 208.05 89.17C208.05 87.96 208.29 86.88 208.76 85.91C209.23 84.94 209.89 84.19 210.72 83.65C211.58 83.09 212.52 82.82 213.58 82.82Z" fill="white" />
        <path d="M224.97 92.87H225.08L227.62 85.21C227.73 84.84 227.79 84.55 227.79 84.35C227.79 84.05 227.65 83.83 227.37 83.7C227.09 83.56 226.58 83.44 225.84 83.32V83.1H230.83V83.32C229.94 83.45 229.31 83.65 228.94 83.9C228.57 84.15 228.28 84.61 228.08 85.24L223.43 98.92C223.11 99.9 222.76 100.58 222.37 100.95C221.89 101.49 221.33 101.76 220.7 101.76C220.18 101.76 219.74 101.61 219.39 101.3C219.04 100.99 218.86 100.61 218.86 100.14C218.86 99.77 218.97 99.47 219.18 99.25C219.39 99.03 219.69 98.92 220.06 98.92C220.41 98.92 220.66 99.01 220.81 99.2C220.96 99.39 221.08 99.65 221.17 99.98C221.24 100.24 221.32 100.43 221.41 100.55C221.49 100.67 221.62 100.73 221.79 100.73C222.03 100.73 222.25 100.58 222.46 100.27C222.66 99.96 222.89 99.45 223.13 98.72L224.22 95.4L219.93 84.26C219.78 83.91 219.59 83.67 219.36 83.55C219.13 83.43 218.7 83.35 218.07 83.31V83.09H223.45V83.31C222.78 83.35 222.35 83.4 222.15 83.46C221.96 83.52 221.86 83.63 221.86 83.78C221.86 83.89 221.92 84.13 222.06 84.5L224.97 92.87Z" fill="white" />
        <path d="M69.36 68.84C79.53 68.61 89.69 68.52 99.86 68.35L130.36 68.07C150.69 67.91 171.03 67.92 191.36 67.84C211.69 67.92 232.03 67.91 252.36 68.07L282.86 68.35C293.03 68.52 303.19 68.61 313.36 68.84C303.19 69.07 293.03 69.16 282.86 69.33L252.36 69.61C232.03 69.77 211.69 69.76 191.36 69.84C171.03 69.76 150.69 69.77 130.36 69.61L99.86 69.33C89.69 69.16 79.52 69.06 69.36 68.84Z" fill="white" />
    </g>
    <defs>
        <clipPath id="clip0_74:136">
            <rect width="382" height="102" fill="white" />
        </clipPath>
    </defs>
</svg>